<svg width="39" height="28" viewBox="0 0 39 28" fill="none" xmlns="http://www.w3.org/2000/svg">
<path d="M13.9457 0H5.26837C4.06304 0 3.03872 0.358031 2.19493 1.07389C1.35154 1.78989 0.929688 2.65923 0.929688 3.68228V11.0466C0.929688 12.0695 1.3513 12.9387 2.19493 13.6546C3.03864 14.3704 4.06328 14.7286 5.26837 14.7286H10.3301C10.9324 14.7286 11.4448 14.9076 11.8666 15.2655C12.2885 15.6232 12.4993 16.0582 12.4993 16.5698V17.1832C12.4993 18.5385 11.9343 19.6953 10.8045 20.6543C9.67472 21.613 8.31149 22.0924 6.71439 22.0924H5.26837C4.87643 22.0924 4.5376 22.2142 4.25125 22.457C3.96513 22.6998 3.82196 22.9875 3.82196 23.32V25.7751C3.82196 26.107 3.96513 26.3953 4.25125 26.6381C4.53784 26.8808 4.87635 27.0026 5.26837 27.0026H6.71446C8.28134 27.0026 9.77651 26.7434 11.2002 26.2257C12.6238 25.708 13.8553 25.0078 14.8948 24.1256C15.9341 23.2433 16.7589 22.1983 17.369 20.99C17.979 19.7818 18.2841 18.5129 18.2841 17.1833V3.68201C18.2841 2.65897 17.8622 1.78968 17.0188 1.07382C16.1753 0.357964 15.1507 0 13.9457 0Z" fill="#F6762C"/>
<path d="M37.2681 1.07389C36.4247 0.358031 35.4003 0 34.1949 0H25.5179C24.3126 0 23.2882 0.358031 22.4448 1.07389C21.6014 1.78995 21.1797 2.65923 21.1797 3.68228V11.0466C21.1797 12.0695 21.6014 12.9387 22.4448 13.6546C23.2882 14.3704 24.3126 14.7286 25.5179 14.7286H30.5796C31.182 14.7286 31.6947 14.9076 32.1165 15.2655C32.5378 15.6234 32.7492 16.0582 32.7492 16.5698V17.1832C32.7492 18.5385 32.1841 19.6953 31.0541 20.6543C29.9244 21.613 28.5615 22.0924 26.9642 22.0924H25.5179C25.1263 22.0924 24.7871 22.2142 24.5011 22.457C24.2148 22.6998 24.0715 22.9875 24.0715 23.32V25.7751C24.0715 26.107 24.2148 26.3953 24.5011 26.6381C24.7871 26.8808 25.1262 27.0026 25.5179 27.0026H26.9642C28.5309 27.0026 30.026 26.7434 31.4498 26.2257C32.8732 25.708 34.1045 25.0078 35.1441 24.1256C36.1836 23.2433 37.0089 22.198 37.6186 20.99C38.2285 19.782 38.5338 18.5129 38.5338 17.1833V3.68201C38.5335 2.65897 38.1121 1.78968 37.2681 1.07389Z" fill="#F6762C"/>
</svg>
